<svg width="24" height="24" viewBox="0 0 24 24" fill="none" xmlns="http://www.w3.org/2000/svg">
<g clip-path="url(#clip0_112_35)">
<path d="M0 0H24V24H0V0Z" fill="#083C8D"/>
<path d="M12 5.33333V0H0V12H5.33333V8L9.33333 12H12V9.33333L8 5.33333H12Z" fill="#F8F9FD"/>
<path d="M4 1.33333V0H1.33333V1.33333H0V4H1.33333V12H4V4H12V1.33333H4Z" fill="#EF5350"/>
<path d="M12 10.6667L6.66667 5.33334H5.33333L12 12V10.6667Z" fill="#EF5350"/>
<path d="M9.33333 17.3333L8 18V18.6667H7.33333L6.66667 20L6 18.6667H5.33333V18L4 17.3333L5.33333 16.6667V16H6L6.66667 14.6667L7.33333 16H8V16.6667L9.33333 17.3333Z" fill="#F8F9FD"/>
<path d="M17.4133 16.8267L17.7467 17.52L18.4933 17.3467L18.16 18.0267L18.76 18.5067L18.0133 18.6667V19.44L17.4133 18.96L16.8267 19.44V18.6667L16.08 18.5067L16.68 18.0267L16.3467 17.3467L17.0933 17.52L17.4133 16.8267ZM14.36 9.52001L14.68 10.2133L15.4267 10.04L15.0933 10.72L15.6933 11.2L14.9467 11.3733V12.1333L14.36 11.6533L13.76 12.1333V11.3733L13.0133 11.2L13.6133 10.72L13.28 10.04L14.0267 10.2133L14.36 9.52001ZM17.4133 5.34668L17.7467 6.04001L18.4933 5.86668L18.16 6.54668L18.76 7.02668L18.0133 7.18668V7.96001L17.4133 7.48001L16.8267 7.96001V7.18668L16.08 7.02668L16.68 6.54668L16.3467 5.86668L17.0933 6.04001L17.4133 5.34668ZM20.0933 8.48001L20.4267 9.17335L21.1733 9.00001L20.84 9.68001L21.4267 10.16L20.6933 10.32V11.0933L20.0933 10.6133L19.4933 11.0933V10.32L18.76 10.16L19.36 9.68001L19.0267 9.00001L19.76 9.17335L20.0933 8.48001ZM18.1867 12.1333L18.4533 12.9333H19.28L18.6133 13.4267L18.8667 14.2267L18.1867 13.72L17.5067 14.2133L17.7733 13.4133L17.08 12.9333H17.92L18.1867 12.1333Z" fill="#F8F9FD"/>
</g>
<defs>
<clipPath id="clip0_112_35">
<rect width="24" height="24" fill="white"/>
</clipPath>
</defs>
</svg>
