<svg width="24" height="24" viewBox="0 0 24 24" fill="none" xmlns="http://www.w3.org/2000/svg">
<g clip-path="url(#clip0_129_71)">
<path d="M0 0H24V24H0V0Z" fill="white"/>
<path d="M9.33333 0H1.33333L9.33333 7.33333V0ZM14.6667 0V8L23.3333 0H14.6667ZM24 6L20 9.33333H24V6ZM24 14.6667H18.6667L24 19.3333V14.6667ZM22.6667 24L14.6667 16.6667V24H22.6667ZM9.33333 24V16L0.666667 24H9.33333ZM0 18L4 14.6667H0V18ZM0 9.33333H5.33333L0 4.66667V9.33333Z" fill="#0D47A1"/>
<path d="M9.33333 9.33334L-8.66667 -6.66666V-3.59999L6.66667 9.33334H9.33333ZM10.6667 10.6667V9.77516e-06H13.3333V10.6667H24V13.3333H13.3333V24H10.6667V13.3333H3.57628e-07V10.6667H10.6667ZM-12 30.6667L6.66667 14.6667H9.33333L-8.66667 30.6667H-12ZM14.6667 9.33334L30.6667 -5.33332H33.6L17.3333 9.33334H14.6667ZM17.3333 14.6667H14.6667L30 28V25.3333L17.3333 14.6667Z" fill="#EF5350"/>
</g>
<defs>
<clipPath id="clip0_129_71">
<rect width="24" height="24" fill="white"/>
</clipPath>
</defs>
</svg>
