<svg width="24" height="24" viewBox="0 0 24 24" fill="none" xmlns="http://www.w3.org/2000/svg">
<g clip-path="url(#clip0_129_158)">
<path d="M0 0H24V24H0V0Z" fill="#085EC0"/>
<path d="M11.9333 2.66666L12.4267 4.18666H14.0267L12.7333 5.11999L13.2267 6.63999L11.9333 5.70666L10.6533 6.63999L11.1333 5.13332L9.85332 4.19999H11.4533L11.92 2.66666H11.9333ZM5.38666 5.38666L6.81332 6.10666L7.93332 4.98666L7.69332 6.55999L9.10666 7.27999L7.53332 7.53332L7.27999 9.10666L6.55999 7.69332L4.98666 7.93332L6.10666 6.81332L5.38666 5.38666ZM2.66666 11.9333L4.18666 11.44V9.83999L5.11999 11.1333L6.65332 10.6667L5.71999 11.9467L6.65332 13.24L5.14666 12.7467L4.21332 14.04V12.44L2.66666 11.9333ZM5.38666 18.48L6.10666 17.0667L4.98666 15.9333L6.55999 16.1867L7.27999 14.76L7.53332 16.3467L9.10666 16.5867L7.69332 17.32L7.93332 18.8933L6.81332 17.76L5.38666 18.48ZM11.9333 21.2L11.44 19.68H9.83999L11.1333 18.7467L10.6667 17.2267L11.9467 18.16L13.24 17.2267L12.7467 18.7467L14.04 19.68H12.44L11.9467 21.2H11.9333ZM18.48 18.48L17.0667 17.76L15.9333 18.8933L16.1867 17.32L14.76 16.5867L16.3467 16.3467L16.5867 14.76L17.32 16.1867L18.8933 15.9333L17.76 17.0667L18.48 18.48ZM21.2 11.9333L19.68 12.4267V14.0267L18.7467 12.7333L17.2267 13.2267L18.16 11.9333L17.2267 10.6533L18.7467 11.1333L19.68 9.85332V11.4533L21.2 11.9333ZM18.48 5.38666L17.76 6.81332L18.8933 7.93332L17.32 7.69332L16.5867 9.10666L16.3467 7.53332L14.76 7.27999L16.1867 6.55999L15.9333 4.98666L17.0667 6.10666L18.48 5.38666Z" fill="#FDD835"/>
</g>
<defs>
<clipPath id="clip0_129_158">
<rect width="24" height="24" fill="white"/>
</clipPath>
</defs>
</svg>
