<svg width="24" height="24" viewBox="0 0 24 24" fill="none" xmlns="http://www.w3.org/2000/svg">
<g clip-path="url(#clip0_142_316)">
<path d="M0 24H24V0H0V24Z" fill="#F0F3FA"/>
<path d="M12 6.66666C13.4145 6.66666 14.7711 7.22856 15.7713 8.22875C16.7715 9.22895 17.3334 10.5855 17.3334 12C17.3334 13.4145 16.7715 14.771 15.7713 15.7712C14.7711 16.7714 13.4145 17.3333 12 17.3333C10.5855 17.3333 9.22898 16.7714 8.22878 15.7712C7.22859 14.771 6.66669 13.4145 6.66669 12C6.66669 10.5855 7.22859 9.22895 8.22878 8.22875C9.22898 7.22856 10.5855 6.66666 12 6.66666Z" fill="#F7525F"/>
</g>
<defs>
<clipPath id="clip0_142_316">
<rect width="24" height="24" fill="white"/>
</clipPath>
</defs>
</svg>
