<svg width="24" height="24" viewBox="0 0 24 24" fill="none" xmlns="http://www.w3.org/2000/svg">
<g clip-path="url(#clip0_114_48)">
<path d="M0 0H24V24H0V0Z" fill="#9EA2B2"/>
<path d="M9.4186 5.64813C9.10237 5.64813 8.84572 5.94849 8.84572 6.3105V10.2467C8.84586 10.3324 8.86083 10.4172 8.88976 10.4962C8.91869 10.5753 8.961 10.647 9.01426 10.7072C9.06752 10.7675 9.13067 10.815 9.20006 10.8472C9.26946 10.8793 9.34373 10.8955 9.4186 10.8946C9.43693 10.8946 9.45411 10.9011 9.4713 10.8998L14.5814 10.8946C14.7333 10.8946 14.879 10.8255 14.9865 10.7025C15.0939 10.5795 15.1543 10.4127 15.1543 10.2388V6.30525C15.1543 5.94324 14.8976 5.64288 14.5814 5.64288L9.4186 5.64813Z" fill="white"/>
<path d="M13.0986 12.0021C12.7824 12.0021 12.5257 12.3024 12.5257 12.6644V16.6006C12.5259 16.6863 12.5408 16.7711 12.5698 16.8502C12.5987 16.9292 12.641 17.0009 12.6942 17.0612C12.7475 17.1214 12.8107 17.169 12.8801 17.2011C12.9495 17.2333 13.0237 17.2494 13.0986 17.2485C13.1169 17.2485 13.1341 17.2551 13.1513 17.2538L18.2614 17.2485C18.4133 17.2485 18.559 17.1795 18.6665 17.0565C18.7739 16.9335 18.8343 16.7667 18.8343 16.5927V12.6592C18.8343 12.2972 18.5776 11.9968 18.2614 11.9968L13.0986 12.0021Z" fill="white"/>
<path d="M5.73861 12.0021C5.42238 12.0021 5.16573 12.3025 5.16573 12.6645V16.6006C5.16587 16.6863 5.18084 16.7712 5.20977 16.8502C5.2387 16.9293 5.28101 17.001 5.33427 17.0612C5.38753 17.1214 5.45067 17.169 5.52007 17.2012C5.58947 17.2333 5.66374 17.2494 5.73861 17.2486C5.75694 17.2486 5.77412 17.2551 5.79131 17.2538L10.9014 17.2486C11.0533 17.2486 11.1991 17.1795 11.3065 17.0565C11.4139 16.9335 11.4743 16.7667 11.4743 16.5928V12.6592C11.4743 12.2972 11.2176 11.9969 10.9014 11.9969L5.73861 12.0021Z" fill="white"/>
</g>
<defs>
<clipPath id="clip0_114_48">
<rect width="24" height="24" fill="white"/>
</clipPath>
</defs>
</svg>
