<svg width="24" height="24" viewBox="0 0 24 24" fill="none" xmlns="http://www.w3.org/2000/svg">
<g clip-path="url(#clip0_129_79)">
<path d="M0 0H24V24H0V0Z" fill="#F7931A"/>
<path d="M17.6406 10.3965C17.8979 8.67682 16.5886 7.75237 14.7983 7.13568L15.379 4.8062L13.9611 4.45282L13.3956 6.72091C13.0229 6.62802 12.64 6.54039 12.2596 6.45356L12.829 4.17052L11.4119 3.81714L10.8307 6.1458C10.5222 6.07553 10.2193 6.00608 9.92525 5.93298L9.92687 5.92571L7.97138 5.43743L7.59417 6.95191C7.59417 6.95191 8.64623 7.19302 8.62402 7.20796C9.19831 7.35133 9.30209 7.73136 9.28473 8.03265L8.6232 10.6864C8.66278 10.6965 8.71408 10.7111 8.77062 10.7337C8.72337 10.722 8.67288 10.709 8.62079 10.6965L7.69351 14.4141C7.62324 14.5885 7.44514 14.8502 7.04371 14.7509C7.05784 14.7715 6.01305 14.4936 6.01305 14.4936L5.30911 16.1168L7.15436 16.5768C7.49764 16.6628 7.83405 16.7528 8.16522 16.8376L7.57842 19.1938L8.99476 19.5472L9.57592 17.2161C9.96282 17.3211 10.3384 17.418 10.7059 17.5093L10.1268 19.8295L11.5447 20.1828L12.1316 17.8312C14.5495 18.2887 16.3677 18.1042 17.133 15.9172C17.7497 14.1564 17.1023 13.1407 15.8301 12.4784C16.7566 12.2647 17.4545 11.6553 17.6406 10.3965ZM14.4009 14.9395C13.9627 16.7003 10.9979 15.7484 10.0367 15.5098L10.8154 12.3883C11.7766 12.6282 14.8588 13.1031 14.4009 14.9395ZM14.8394 10.371C14.4396 11.9727 11.972 11.1589 11.1716 10.9594L11.8775 8.12837C12.678 8.32788 15.2558 8.70023 14.8394 10.371Z" fill="white"/>
</g>
<defs>
<clipPath id="clip0_129_79">
<rect width="24" height="24" fill="white"/>
</clipPath>
</defs>
</svg>
