<svg width="24" height="24" viewBox="0 0 24 24" fill="none" xmlns="http://www.w3.org/2000/svg">
<g clip-path="url(#clip0_129_115)">
<path d="M0 0H24V24H0V0Z" fill="#5E3B27"/>
<path d="M13.5955 9.1976C13.3672 8.0273 12.7963 7.27088 12.5537 6.94263C12.4966 6.87127 12.5108 6.79991 12.5394 6.65719C12.5822 6.45738 12.625 6.17194 12.2539 5.95786C12.2397 5.95786 12.2397 5.94359 12.2254 5.94359C11.8115 5.80087 11.626 6.01495 11.4975 6.17194C11.4119 6.27184 11.3548 6.3432 11.2692 6.3432C10.8696 6.35747 9.9276 6.40029 8.87148 6.97117C7.57273 7.6705 6.53087 8.94071 5.76018 10.739C4.50425 13.679 5.73164 16.9901 6.48805 18.0462C6.5166 18.0748 6.54514 18.1033 6.58796 18.1033C6.58796 18.1033 6.58796 18.1033 6.60223 18.1033C7.90098 18.0034 11.2264 16.8331 12.6964 13.993C13.5812 12.2661 13.8809 10.6533 13.5955 9.1976ZM8.17215 16.7047C7.98661 16.776 7.80108 16.8046 7.60127 16.8046C7.45855 16.8046 7.3301 16.7903 7.18738 16.7475C7.17311 16.7475 7.15884 16.7332 7.14456 16.7332C6.8734 16.5334 6.67359 16.2622 6.55941 15.9483C6.28824 15.1918 5.76018 13.208 6.57368 11.0958C7.82962 7.84176 9.98469 7.42788 10.8696 7.39933H10.8838C11.0979 7.38506 11.2977 7.42787 11.4975 7.49923C11.5118 7.49923 11.5118 7.49923 11.5261 7.51351C11.7116 7.62768 11.8686 7.75613 11.997 7.92739C12.5394 8.61245 13.5955 10.5534 11.8971 13.5934C10.7839 15.5772 8.91429 16.4335 8.17215 16.7047Z" fill="white"/>
<path d="M8.01516 13.4364C8.08652 13.2937 8.01516 13.1367 7.87244 13.0653L7.38719 12.837C7.34437 12.8227 7.30155 12.8084 7.27301 12.8084C7.17311 12.8084 7.0732 12.8655 7.01612 12.9654C6.98757 13.0368 6.98757 13.1081 7.00184 13.1795C7.01612 13.2509 7.0732 13.3079 7.14456 13.3365L7.62981 13.5648C7.7868 13.6362 7.95807 13.5648 8.01516 13.4364Z" fill="white"/>
<path d="M10.0418 14.0644L9.55653 13.836C9.51372 13.8217 9.4709 13.8075 9.44236 13.8075C9.34245 13.8075 9.24255 13.8645 9.18546 13.9645C9.1141 14.1072 9.18546 14.2642 9.32818 14.3355L9.81343 14.5639C9.95615 14.6352 10.1131 14.5639 10.1845 14.4212C10.2416 14.307 10.1702 14.1357 10.0418 14.0644Z" fill="white"/>
<path d="M7.71544 11.4811L8.31487 11.7666C8.52895 11.8665 8.78584 11.7808 8.90002 11.5525C8.94284 11.4526 8.95711 11.3241 8.91429 11.2242C8.87148 11.1101 8.80012 11.0244 8.68594 10.9816L8.08652 10.6962C8.02943 10.6676 7.95807 10.6533 7.90098 10.6533C7.74399 10.6533 7.587 10.739 7.50136 10.896C7.45855 10.9959 7.44428 11.1243 7.48709 11.2242C7.52991 11.3527 7.61554 11.4383 7.71544 11.4811Z" fill="white"/>
<path d="M11.2406 12.1805L10.6412 11.895C10.5841 11.8665 10.5128 11.8522 10.4557 11.8522C10.2987 11.8522 10.1417 11.9378 10.0561 12.0948C9.95615 12.3089 10.0418 12.5658 10.2701 12.6657L10.8696 12.9511C10.9695 12.994 11.0979 13.0082 11.1978 12.9654C11.312 12.9226 11.3976 12.8512 11.4404 12.7371C11.5546 12.5373 11.4547 12.2804 11.2406 12.1805Z" fill="white"/>
<path d="M8.60031 9.75421L9.19973 10.0397C9.41381 10.1396 9.67071 10.0539 9.78488 9.82557C9.8277 9.72567 9.84197 9.59722 9.79916 9.49732C9.75634 9.38314 9.68498 9.29751 9.5708 9.25469L8.97138 8.96925C8.91429 8.94071 8.84293 8.92644 8.78585 8.92644C8.62885 8.92644 8.47186 9.01207 8.38623 9.16906C8.34341 9.26897 8.32914 9.39741 8.37196 9.49732C8.41477 9.61149 8.5004 9.7114 8.60031 9.75421Z" fill="white"/>
<path d="M12.1255 10.4393L11.5261 10.1538C11.469 10.1253 11.3976 10.111 11.3405 10.111C11.1835 10.111 11.0265 10.1966 10.9409 10.3536C10.841 10.5677 10.9266 10.8246 11.155 10.9245L11.7544 11.21C11.8543 11.2528 11.9828 11.267 12.0827 11.2242C12.1969 11.1814 12.2825 11.1101 12.3253 10.9959C12.4395 10.8103 12.3396 10.5392 12.1255 10.4393Z" fill="white"/>
<path d="M11.0836 8.41264C11.0265 8.3841 10.9552 8.41265 10.9266 8.46973L7.62981 15.4916C7.60127 15.5486 7.62981 15.62 7.6869 15.6485C7.70117 15.6628 7.71544 15.6628 7.74399 15.6628C7.7868 15.6628 7.82962 15.6343 7.85816 15.5915L11.1407 8.58391C11.1693 8.52682 11.1407 8.44119 11.0836 8.41264Z" fill="white"/>
<path d="M18.2339 10.7533C17.4632 8.96925 16.4214 7.69904 15.1226 6.98544C14.1949 6.48592 13.3529 6.38602 12.8819 6.35748C12.8962 6.5002 12.8676 6.64292 12.8534 6.72855C12.8534 6.74282 12.8391 6.77136 12.8391 6.79991C13.1103 7.15671 13.6811 7.94167 13.9095 9.14052C14.2092 10.6676 13.8952 12.3517 12.9675 14.15C12.7535 14.5781 12.4823 14.9635 12.1969 15.3203C13.8381 17.2185 16.3072 18.032 17.3776 18.1033C17.3776 18.1033 17.3776 18.1033 17.3919 18.1033C17.4347 18.1033 17.4632 18.0891 17.4918 18.0462C18.2624 17.0044 19.5041 13.6933 18.2339 10.7533Z" fill="white"/>
</g>
<defs>
<clipPath id="clip0_129_115">
<rect width="24" height="24" fill="white"/>
</clipPath>
</defs>
</svg>
