<svg width="24" height="24" viewBox="0 0 24 24" fill="none" xmlns="http://www.w3.org/2000/svg">
<g clip-path="url(#clip0_130_199)">
<path d="M0 0H24V24H0V0Z" fill="#B42D34"/>
<path d="M18.3546 15.8328C16.3744 15.8328 15.3741 14.2303 15.3741 11.9847C15.3741 9.73911 16.3744 8.16721 18.3546 8.16721C20.3144 8.16721 21.3249 9.73911 21.3249 11.9847C21.3249 14.2303 20.3144 15.8328 18.3546 15.8328ZM18.3546 14.7712C19.3651 14.7712 19.8857 13.7709 19.8857 11.9847C19.8857 10.1984 19.3651 9.22875 18.3546 9.22875C17.3441 9.22875 16.8134 10.1984 16.8134 11.9847C16.8134 13.7709 17.3441 14.7712 18.3546 14.7712Z" fill="white"/>
<path d="M11.7905 15.8328C9.81036 15.8328 8.81006 14.2303 8.81006 11.9847C8.81006 9.73911 9.81036 8.16721 11.7905 8.16721C13.7503 8.16721 14.7608 9.73911 14.7608 11.9847C14.7608 14.2303 13.7503 15.8328 11.7905 15.8328ZM11.7905 14.7712C12.8011 14.7712 13.3216 13.7709 13.3216 11.9847C13.3216 10.1984 12.8011 9.22875 11.7905 9.22875C10.78 9.22875 10.2493 10.1984 10.2493 11.9847C10.2493 13.7709 10.78 14.7712 11.7905 14.7712Z" fill="white"/>
<path d="M5.43101 14.7713C6.20676 14.7713 6.76815 14.2099 6.76815 13.2708C6.76815 12.2501 6.08427 11.7602 5.40039 11.7602C4.74713 11.7602 4.28781 12.0766 4.1347 12.4338L2.8486 12.3726L3.33854 8.29993H7.90115V9.48396H4.49195L4.28781 11.0661C4.60423 10.8313 5.06356 10.6578 5.75764 10.6578C7.02333 10.6578 8.19715 11.556 8.19715 13.2606C8.19715 14.8938 6.93147 15.8328 5.4106 15.8328C3.67538 15.8328 2.75674 14.6488 2.67508 13.3729H4.00201C4.08367 14.1384 4.52258 14.7713 5.43101 14.7713Z" fill="white"/>
</g>
<defs>
<clipPath id="clip0_130_199">
<rect width="24" height="24" fill="white"/>
</clipPath>
</defs>
</svg>
