<svg width="24" height="24" viewBox="0 0 24 24" fill="none" xmlns="http://www.w3.org/2000/svg">
<g clip-path="url(#clip0_142_245)">
<path d="M0 0H24V24H0V0Z" fill="#1F174E"/>
<path d="M12.8499 14.5499C12.3805 14.0805 12.3805 13.3194 12.8499 12.8499C13.3193 12.3805 14.0804 12.3805 14.5498 12.8499L17.499 15.7991C17.9684 16.2685 17.9684 17.0296 17.499 17.499C17.0296 17.9684 16.2685 17.9684 15.7991 17.499L12.8499 14.5499Z" fill="#5DCB84"/>
<path d="M6.50093 8.20088C6.03151 7.73146 6.03151 6.97038 6.50093 6.50096C6.97035 6.03154 7.73143 6.03154 8.20085 6.50096L11.15 9.4501C11.6194 9.91952 11.6194 10.6806 11.15 11.15C10.6806 11.6194 9.91949 11.6194 9.45007 11.15L6.50093 8.20088Z" fill="#5DCB84"/>
<path d="M14.5499 11.15C14.0804 11.6194 13.3194 11.6194 12.8499 11.15C12.3805 10.6806 12.3805 9.91952 12.8499 9.4501L15.7991 6.50096C16.2685 6.03154 17.0296 6.03154 17.499 6.50096C17.9684 6.97039 17.9684 7.73147 17.499 8.20089L14.5499 11.15Z" fill="#5DCB84"/>
<path d="M8.20087 17.499C7.73145 17.9684 6.97036 17.9684 6.50094 17.499C6.03152 17.0296 6.03152 16.2685 6.50094 15.7991L9.45008 12.85C9.9195 12.3805 10.6806 12.3805 11.15 12.85C11.6194 13.3194 11.6194 14.0805 11.15 14.5499L8.20087 17.499Z" fill="#5DCB84"/>
</g>
<defs>
<clipPath id="clip0_142_245">
<rect width="24" height="24" fill="white"/>
</clipPath>
</defs>
</svg>
