<svg width="24" height="24" viewBox="0 0 24 24" fill="none" xmlns="http://www.w3.org/2000/svg">
<g clip-path="url(#clip0_142_262)">
<path d="M0 0H24V24H0V0Z" fill="#1F174E"/>
<path d="M15.3112 16.1305C13.1772 16.1305 12.0992 14.4035 12.0992 11.9835C12.0992 9.56351 13.1772 7.86951 15.3112 7.86951C17.4232 7.86951 18.5122 9.56351 18.5122 11.9835C18.5122 14.4035 17.4232 16.1305 15.3112 16.1305ZM15.3112 14.9865C16.4002 14.9865 16.9612 13.9085 16.9612 11.9835C16.9612 10.0585 16.4002 9.01351 15.3112 9.01351C14.2222 9.01351 13.6502 10.0585 13.6502 11.9835C13.6502 13.9085 14.2222 14.9865 15.3112 14.9865Z" fill="white"/>
<path d="M8.45773 14.9865C9.29373 14.9865 9.89873 14.3815 9.89873 13.3695C9.89873 12.2695 9.16173 11.7415 8.42473 11.7415C7.72073 11.7415 7.22573 12.0825 7.06073 12.4675L5.67473 12.4015L6.20273 8.01251H11.1197V9.28851H7.44573L7.22573 10.9935C7.56673 10.7405 8.06173 10.5535 8.80973 10.5535C10.1737 10.5535 11.4387 11.5215 11.4387 13.3585C11.4387 15.1185 10.0747 16.1305 8.43573 16.1305C6.56573 16.1305 5.57573 14.8545 5.48773 13.4795H6.91773C7.00573 14.3045 7.47873 14.9865 8.45773 14.9865Z" fill="white"/>
</g>
<defs>
<clipPath id="clip0_142_262">
<rect width="24" height="24" fill="white"/>
</clipPath>
</defs>
</svg>
