<svg width="24" height="24" viewBox="0 0 24 24" fill="none" xmlns="http://www.w3.org/2000/svg">
<g clip-path="url(#clip0_138_210)">
<path d="M0 0H24V24H0V0Z" fill="#CCA133"/>
<path d="M10.2087 5.61834C10.1525 5.61689 10.0968 5.62912 10.0464 5.65397C9.99598 5.67882 9.95237 5.71556 9.91932 5.76101L7.62066 10.1917C7.49266 10.3823 7.65266 10.6183 7.90999 10.6183H16.0913C16.3473 10.6183 16.5073 10.3823 16.3793 10.1917L14.0807 5.76101C14.0476 5.71556 14.004 5.67882 13.9536 5.65397C13.9032 5.62912 13.8475 5.61689 13.7913 5.61834H10.2087Z" fill="white"/>
<path d="M5.28397 11.6185C5.22779 11.617 5.1721 11.6292 5.1217 11.6541C5.07129 11.6789 5.02769 11.7157 4.99464 11.7611L2.69597 16.1918C2.56797 16.3825 2.72797 16.6185 2.9853 16.6185H11.1666C11.4226 16.6185 11.5826 16.3825 11.4546 16.1918L9.15597 11.7611C9.12292 11.7157 9.07931 11.6789 9.02891 11.6541C8.97851 11.6292 8.92282 11.617 8.86664 11.6185H5.28397Z" fill="white"/>
<path d="M15.1333 11.6185C15.0772 11.617 15.0215 11.6292 14.9711 11.6541C14.9207 11.6789 14.8771 11.7157 14.844 11.7611L12.5453 16.1918C12.4173 16.3825 12.5773 16.6185 12.8347 16.6185H21.016C21.272 16.6185 21.432 16.3825 21.304 16.1918L19.0053 11.7611C18.9723 11.7157 18.9287 11.6789 18.8783 11.6541C18.8279 11.6292 18.7722 11.617 18.716 11.6185H15.1333Z" fill="white"/>
</g>
<defs>
<clipPath id="clip0_138_210">
<rect width="24" height="24" fill="white"/>
</clipPath>
</defs>
</svg>
