<svg width="24" height="24" viewBox="0 0 24 24" fill="none" xmlns="http://www.w3.org/2000/svg">
<g clip-path="url(#clip0_142_294)">
<path d="M0 0H24V24H0V0Z" fill="black"/>
<path d="M7.55885 7.6378L9.03956 6.80997C9.14271 6.75251 9.21909 6.65785 9.25108 6.54228C9.28307 6.42868 9.27001 6.30856 9.2106 6.2041L8.87373 5.6015C8.75556 5.38802 8.48267 5.31032 8.26917 5.43046L6.78846 6.25829C6.68335 6.31574 6.60893 6.41041 6.57694 6.52597C6.54495 6.63957 6.55866 6.75969 6.61611 6.86285L6.95299 7.4674C7.03394 7.61299 7.18671 7.69461 7.34209 7.69461C7.41652 7.69461 7.48964 7.67763 7.55885 7.63846L7.55885 7.6378ZM8.07461 5.99649C8.15556 5.95079 8.25937 5.97952 8.30507 6.06243L8.50615 6.4228C8.55185 6.50572 8.52312 6.60757 8.44217 6.65327C8.41475 6.66828 8.38798 6.67546 8.35925 6.67546C8.29984 6.67546 8.24239 6.64478 8.21171 6.58928L8.00867 6.22694C7.96297 6.14598 7.99365 6.04219 8.07461 5.99649ZM7.38257 6.40911C7.46353 6.36341 7.56734 6.3941 7.61303 6.47505L7.80106 6.80997C7.84676 6.89093 7.81608 6.99474 7.73512 7.04043C7.70966 7.05545 7.68093 7.06263 7.65416 7.06263C7.59345 7.06263 7.53534 7.03064 7.50531 6.97449L7.31729 6.63957C7.27354 6.55862 7.30227 6.45546 7.38323 6.40911H7.38257Z" fill="white"/>
<path d="M17.4393 17.2055V6.70034C17.4393 6.4418 17.3375 6.19764 17.1547 6.01352L16.7401 5.59895C16.5573 5.41614 16.3118 5.3143 16.0526 5.3143H11.7469C11.38 5.3143 11.0477 5.51733 10.8806 5.84378L10.3139 6.95235H10.0227C9.82291 6.95235 9.62835 7.00327 9.45405 7.09989L7.87998 7.97996C7.51242 8.18627 7.28457 8.57407 7.28457 8.99581V17.2063C7.28457 18.0224 7.94789 18.6857 8.76397 18.6857H15.9606C16.7767 18.6857 17.44 18.0224 17.44 17.2063L17.4393 17.2055ZM11.429 7.12002L11.7757 6.43973C11.7946 6.40578 11.8299 6.38358 11.8703 6.38358H15.9696C15.9971 6.38358 16.0238 6.39403 16.0441 6.41427L16.3385 6.70871C16.3587 6.72895 16.3705 6.75571 16.3705 6.78313V7.16898C16.3705 7.22643 16.3228 7.27409 16.2641 7.27409H11.5216C11.4844 7.27409 11.4505 7.25516 11.4322 7.22317C11.412 7.19118 11.4101 7.15397 11.429 7.12002ZM15.1817 15.8737C15.2476 15.9396 15.2476 16.046 15.1817 16.1126C15.1477 16.1446 15.1053 16.1616 15.0615 16.1616C15.0178 16.1616 14.9754 16.1446 14.9414 16.1126L13.7702 14.9401H10.9556L9.78243 16.1126C9.75044 16.1446 9.70605 16.1616 9.66231 16.1616C9.61987 16.1616 9.57613 16.1446 9.54414 16.1126C9.4782 16.0467 9.4782 15.9403 9.54414 15.8737L10.7154 14.7011V11.8866L9.54414 10.7134C9.4782 10.6474 9.4782 10.541 9.54414 10.4744C9.61008 10.4085 9.71649 10.4085 9.78309 10.4744L10.9563 11.647H13.7708L14.9421 10.4744C15.008 10.4085 15.1164 10.4085 15.1823 10.4744C15.2483 10.5404 15.2483 10.6468 15.1823 10.7134L14.0091 11.8866V14.7011L15.1823 15.8737H15.1817Z" fill="white"/>
<path d="M11.0536 11.986H13.6703V14.6008H11.0536V11.986Z" fill="white"/>
</g>
<defs>
<clipPath id="clip0_142_294">
<rect width="24" height="24" fill="white"/>
</clipPath>
</defs>
</svg>
