<svg width="24" height="24" viewBox="0 0 24 24" fill="none" xmlns="http://www.w3.org/2000/svg">
<g clip-path="url(#clip0_142_399)">
<path d="M0 0H24V24H0V0Z" fill="#501E23"/>
<path d="M11.6447 11.1227C11.4309 10.2625 11.2101 9.37317 11.0203 8.4159C10.7502 7.05374 10.7262 5.98169 10.8402 5.13967C10.8726 4.90131 10.6381 4.70763 10.4101 4.78537C7.8373 5.6572 5.94531 8.59205 5.94531 12.0807C5.94531 15.6302 7.90462 18.6071 10.5461 19.4201C10.9561 19.5464 11.4069 19.38 11.6097 19.0024C12.9712 16.4634 12.3999 14.1613 11.6453 11.1233L11.6447 11.1227Z" fill="white"/>
<path d="M12.4105 4.53921C12.2524 4.52625 12.108 4.63313 12.0691 4.78729C11.8806 5.53153 11.8275 6.61908 12.1397 8.19435C12.3243 9.12514 12.5419 10.0014 12.7525 10.8481C13.4423 13.6256 14.0557 16.1019 12.994 18.7278C12.8379 19.1132 13.1987 19.5102 13.5926 19.3768C16.1641 18.5037 18.0547 15.5688 18.0547 12.0815C18.0547 8.0778 15.563 4.80356 12.4104 4.54007L12.4105 4.53921Z" fill="white"/>
</g>
<defs>
<clipPath id="clip0_142_399">
<rect width="24" height="24" fill="white"/>
</clipPath>
</defs>
</svg>
