<svg width="24" height="24" viewBox="0 0 24 24" fill="none" xmlns="http://www.w3.org/2000/svg">
<g clip-path="url(#clip0_142_269)">
<path d="M0 0H24V24H0V0Z" fill="#42A5F5"/>
<path fill-rule="evenodd" clip-rule="evenodd" d="M14.2621 4.24969C14.2621 4.24969 13.3062 5.89415 14.1344 7.57666C14.9632 9.25917 15.6897 10.5852 15.5235 11.9998C15.5235 11.9998 15.9441 9.70534 18.0728 9.10594C18.0728 9.10594 17.2826 10.5972 17.7158 12.7008C18.1489 14.8039 17.1674 18.7303 13.1394 19.7503C13.1394 19.7503 16.7088 17.851 14.1464 14.7659C14.1464 14.7659 14.0828 16.2832 12.7634 16.7353C12.7634 16.7353 14.841 13.198 11.7819 9.90914C11.7819 9.90914 12.483 12.191 10.1375 14.1415C7.79196 16.0919 8.95219 19.2275 10.3032 19.6607C10.3032 19.6607 2.93521 16.3718 7.32025 9.59067C7.32025 9.59067 7.47348 11.133 8.59516 11.7324C8.59516 11.7324 8.42941 5.11649 14.2616 4.24969H14.2621Z" fill="white"/>
</g>
<defs>
<clipPath id="clip0_142_269">
<rect width="24" height="24" fill="white"/>
</clipPath>
</defs>
</svg>
