<svg width="24" height="24" viewBox="0 0 24 24" fill="none" xmlns="http://www.w3.org/2000/svg">
<g clip-path="url(#clip0_105_23)">
<path d="M0 0H24V24H0V0Z" fill="#0091BA" fill-opacity="0.93"/>
<path d="M18.0822 16.1305C15.9482 16.1305 14.8702 14.4035 14.8702 11.9835C14.8702 9.56348 15.9482 7.86948 18.0822 7.86948C20.1942 7.86948 21.2832 9.56348 21.2832 11.9835C21.2832 14.4035 20.1942 16.1305 18.0822 16.1305ZM18.0822 14.9865C19.1712 14.9865 19.7322 13.9085 19.7322 11.9835C19.7322 10.0585 19.1712 9.01348 18.0822 9.01348C16.9932 9.01348 16.4212 10.0585 16.4212 11.9835C16.4212 13.9085 16.9932 14.9865 18.0822 14.9865Z" fill="white"/>
<path d="M11.0082 16.1305C8.87424 16.1305 7.79624 14.4035 7.79624 11.9835C7.79624 9.56348 8.87424 7.86948 11.0082 7.86948C13.1202 7.86948 14.2092 9.56348 14.2092 11.9835C14.2092 14.4035 13.1202 16.1305 11.0082 16.1305ZM11.0082 14.9865C12.0972 14.9865 12.6582 13.9085 12.6582 11.9835C12.6582 10.0585 12.0972 9.01348 11.0082 9.01348C9.91924 9.01348 9.34724 10.0585 9.34724 11.9835C9.34724 13.9085 9.91924 14.9865 11.0082 14.9865Z" fill="white"/>
<path d="M6.74969 15.9875H5.23169V10.0255H3.51569V8.99148C4.65969 8.95848 5.22069 8.88148 5.59469 8.01248H6.74969V15.9875Z" fill="white"/>
</g>
<defs>
<clipPath id="clip0_105_23">
<rect width="24" height="24" fill="white"/>
</clipPath>
</defs>
</svg>
