<svg width="24" height="24" viewBox="0 0 24 24" fill="none" xmlns="http://www.w3.org/2000/svg">
<g clip-path="url(#clip0_142_232)">
<path d="M0 0H24V24H0V0Z" fill="#591434"/>
<path d="M19.4531 15.004C17.9011 15.004 17.1171 13.748 17.1171 11.988C17.1171 10.228 17.9011 8.996 19.4531 8.996C20.9891 8.996 21.7811 10.228 21.7811 11.988C21.7811 13.748 20.9891 15.004 19.4531 15.004ZM19.4531 14.172C20.2451 14.172 20.6531 13.388 20.6531 11.988C20.6531 10.588 20.2451 9.828 19.4531 9.828C18.6611 9.828 18.2451 10.588 18.2451 11.988C18.2451 13.388 18.6611 14.172 19.4531 14.172Z" fill="white"/>
<path d="M14.3084 15.004C12.7564 15.004 11.9724 13.748 11.9724 11.988C11.9724 10.228 12.7564 8.996 14.3084 8.996C15.8444 8.996 16.6364 10.228 16.6364 11.988C16.6364 13.748 15.8444 15.004 14.3084 15.004ZM14.3084 14.172C15.1004 14.172 15.5084 13.388 15.5084 11.988C15.5084 10.588 15.1004 9.828 14.3084 9.828C13.5164 9.828 13.1004 10.588 13.1004 11.988C13.1004 13.388 13.5164 14.172 14.3084 14.172Z" fill="white"/>
<path d="M9.16375 15.004C7.61175 15.004 6.82775 13.748 6.82775 11.988C6.82775 10.228 7.61175 8.996 9.16375 8.996C10.6997 8.996 11.4917 10.228 11.4917 11.988C11.4917 13.748 10.6997 15.004 9.16375 15.004ZM9.16375 14.172C9.95575 14.172 10.3637 13.388 10.3637 11.988C10.3637 10.588 9.95575 9.828 9.16375 9.828C8.37175 9.828 7.95575 10.588 7.95575 11.988C7.95575 13.388 8.37175 14.172 9.16375 14.172Z" fill="white"/>
<path d="M4.44293 8.996C5.60293 8.996 6.34693 9.54 6.34693 10.556C6.34693 11.636 5.29093 12.78 3.50693 13.972H6.48293V14.9H2.21893V14.004C4.08293 12.508 5.23493 11.532 5.23493 10.612C5.23493 10.1 4.92293 9.812 4.37893 9.812C3.89093 9.812 3.39493 10.108 3.39493 10.972H2.32293C2.29893 9.78 3.16293 8.996 4.44293 8.996Z" fill="white"/>
</g>
<defs>
<clipPath id="clip0_142_232">
<rect width="24" height="24" fill="white"/>
</clipPath>
</defs>
</svg>
