<svg width="24" height="24" viewBox="0 0 24 24" fill="none" xmlns="http://www.w3.org/2000/svg">
<g clip-path="url(#clip0_142_348)">
<path d="M0 0H14.6667V14.6667H0V0Z" fill="#173679"/>
<path d="M14.6667 0V5.33333H24V0H14.6667ZM14.6667 9.33333V14.6667H24V9.33333H14.6667ZM0 18.6667V24H24V18.6667H0Z" fill="#C0393B"/>
<path d="M14.6667 5.33334V9.33334H24V5.33334H14.6667ZM0 14.6667V18.6667H24V14.6667H0Z" fill="#F8F9FD"/>
<path d="M3.22668 1.62667C3.23677 1.60708 3.25207 1.59065 3.27088 1.57918C3.2897 1.56771 3.31131 1.56165 3.33334 1.56165C3.35538 1.56165 3.37699 1.56771 3.39581 1.57918C3.41462 1.59065 3.42992 1.60708 3.44001 1.62667L3.80001 2.57334C3.81334 2.62667 3.86668 2.65334 3.90668 2.65334L4.92001 2.70667C5.02668 2.70667 5.06668 2.84 4.98668 2.92L4.18668 3.54667C4.16927 3.56359 4.1574 3.58539 4.15264 3.6092C4.14788 3.633 4.15045 3.65769 4.16001 3.68L4.42668 4.64C4.4348 4.66435 4.4349 4.69066 4.42696 4.71507C4.41903 4.73948 4.40347 4.7607 4.38259 4.77561C4.3617 4.79053 4.33659 4.79836 4.31093 4.79795C4.28526 4.79754 4.26041 4.78891 4.24001 4.77334L3.40001 4.22667C3.38028 4.21349 3.35708 4.20645 3.33334 4.20645C3.30961 4.20645 3.28641 4.21349 3.26668 4.22667L2.42668 4.77334C2.40628 4.78891 2.38143 4.79754 2.35576 4.79795C2.3301 4.79836 2.30498 4.79053 2.2841 4.77561C2.26322 4.7607 2.24766 4.73948 2.23973 4.71507C2.23179 4.69066 2.23189 4.66435 2.24001 4.64L2.50668 3.66667C2.5147 3.64305 2.51516 3.61751 2.50799 3.59361C2.50082 3.56971 2.48638 3.54865 2.46668 3.53334L1.68001 2.92C1.66118 2.90491 1.64733 2.88448 1.64029 2.86139C1.63325 2.8383 1.63333 2.81362 1.64053 2.79058C1.64773 2.76754 1.66171 2.74721 1.68065 2.73224C1.69959 2.71727 1.7226 2.70836 1.74668 2.70667L2.76001 2.65334C2.80001 2.65334 2.85334 2.62667 2.86668 2.57334L3.22668 1.64V1.62667ZM3.22668 5.62667C3.23677 5.60708 3.25207 5.59065 3.27088 5.57918C3.2897 5.56771 3.31131 5.56165 3.33334 5.56165C3.35538 5.56165 3.37699 5.56771 3.39581 5.57918C3.41462 5.59065 3.42992 5.60708 3.44001 5.62667L3.80001 6.57334C3.81334 6.62667 3.86668 6.65334 3.90668 6.65334L4.92001 6.70667C5.02668 6.70667 5.06668 6.84 4.98668 6.92L4.18668 7.54667C4.16927 7.56359 4.1574 7.58539 4.15264 7.6092C4.14788 7.633 4.15045 7.65769 4.16001 7.68L4.42668 8.64C4.4348 8.66435 4.4349 8.69066 4.42696 8.71507C4.41903 8.73948 4.40347 8.7607 4.38259 8.77561C4.3617 8.79053 4.33659 8.79836 4.31093 8.79795C4.28526 8.79754 4.26041 8.78891 4.24001 8.77334L3.40001 8.22667C3.38028 8.21349 3.35708 8.20645 3.33334 8.20645C3.30961 8.20645 3.28641 8.21349 3.26668 8.22667L2.42668 8.77334C2.40628 8.78891 2.38143 8.79754 2.35576 8.79795C2.3301 8.79836 2.30498 8.79053 2.2841 8.77561C2.26322 8.7607 2.24766 8.73948 2.23973 8.71507C2.23179 8.69066 2.23189 8.66435 2.24001 8.64L2.50668 7.66667C2.5147 7.64305 2.51516 7.61751 2.50799 7.59361C2.50082 7.56971 2.48638 7.54865 2.46668 7.53334L1.68001 6.92C1.66118 6.90491 1.64733 6.88448 1.64029 6.86139C1.63325 6.8383 1.63333 6.81362 1.64053 6.79058C1.64773 6.76754 1.66171 6.74721 1.68065 6.73224C1.69959 6.71727 1.7226 6.70836 1.74668 6.70667L2.76001 6.65334C2.80001 6.65334 2.85334 6.62667 2.86668 6.57334L3.22668 5.64V5.62667ZM3.22668 9.62667C3.23677 9.60708 3.25207 9.59065 3.27088 9.57918C3.2897 9.56771 3.31131 9.56165 3.33334 9.56165C3.35538 9.56165 3.37699 9.56771 3.39581 9.57918C3.41462 9.59065 3.42992 9.60708 3.44001 9.62667L3.80001 10.5733C3.81334 10.6267 3.86668 10.6533 3.90668 10.6533L4.92001 10.7067C5.02668 10.7067 5.06668 10.84 4.98668 10.92L4.18668 11.5467C4.16927 11.5636 4.1574 11.5854 4.15264 11.6092C4.14788 11.633 4.15045 11.6577 4.16001 11.68L4.42668 12.64C4.4348 12.6644 4.4349 12.6907 4.42696 12.7151C4.41903 12.7395 4.40347 12.7607 4.38259 12.7756C4.3617 12.7905 4.33659 12.7984 4.31093 12.7979C4.28526 12.7975 4.26041 12.7889 4.24001 12.7733L3.40001 12.2267C3.38028 12.2135 3.35708 12.2064 3.33334 12.2064C3.30961 12.2064 3.28641 12.2135 3.26668 12.2267L2.42668 12.7733C2.40628 12.7889 2.38143 12.7975 2.35576 12.7979C2.3301 12.7984 2.30498 12.7905 2.2841 12.7756C2.26322 12.7607 2.24766 12.7395 2.23973 12.7151C2.23179 12.6907 2.23189 12.6644 2.24001 12.64L2.50668 11.6667C2.5147 11.643 2.51516 11.6175 2.50799 11.5936C2.50082 11.5697 2.48638 11.5486 2.46668 11.5333L1.68001 10.92C1.66118 10.9049 1.64733 10.8845 1.64029 10.8614C1.63325 10.8383 1.63333 10.8136 1.64053 10.7906C1.64773 10.7675 1.66171 10.7472 1.68065 10.7322C1.69959 10.7173 1.7226 10.7084 1.74668 10.7067L2.76001 10.6533C2.80001 10.6533 2.85334 10.6267 2.86668 10.5733L3.22668 9.64V9.62667ZM7.22668 1.62667C7.23677 1.60708 7.25207 1.59065 7.27088 1.57918C7.2897 1.56771 7.31131 1.56165 7.33334 1.56165C7.35538 1.56165 7.37699 1.56771 7.39581 1.57918C7.41462 1.59065 7.42992 1.60708 7.44001 1.62667L7.80001 2.57334C7.81334 2.62667 7.86668 2.65334 7.90668 2.65334L8.92001 2.70667C9.02668 2.70667 9.06668 2.84 8.98668 2.92L8.18668 3.54667C8.16927 3.56359 8.1574 3.58539 8.15264 3.6092C8.14788 3.633 8.15045 3.65769 8.16001 3.68L8.42668 4.64C8.4348 4.66435 8.4349 4.69066 8.42696 4.71507C8.41903 4.73948 8.40347 4.7607 8.38259 4.77561C8.3617 4.79053 8.33659 4.79836 8.31093 4.79795C8.28526 4.79754 8.26041 4.78891 8.24001 4.77334L7.40001 4.22667C7.38028 4.21349 7.35708 4.20645 7.33334 4.20645C7.30961 4.20645 7.28641 4.21349 7.26668 4.22667L6.42668 4.77334C6.40628 4.78891 6.38143 4.79754 6.35576 4.79795C6.3301 4.79836 6.30498 4.79053 6.2841 4.77561C6.26322 4.7607 6.24766 4.73948 6.23973 4.71507C6.23179 4.69066 6.23189 4.66435 6.24001 4.64L6.50668 3.66667C6.5147 3.64305 6.51516 3.61751 6.50799 3.59361C6.50082 3.56971 6.48638 3.54865 6.46668 3.53334L5.68001 2.92C5.66118 2.90491 5.64734 2.88448 5.64029 2.86139C5.63325 2.8383 5.63333 2.81362 5.64053 2.79058C5.64773 2.76754 5.66171 2.74721 5.68065 2.73224C5.69959 2.71727 5.7226 2.70836 5.74668 2.70667L6.76001 2.65334C6.80001 2.65334 6.85334 2.62667 6.86668 2.57334L7.22668 1.64V1.62667ZM7.22668 5.62667C7.23677 5.60708 7.25207 5.59065 7.27088 5.57918C7.2897 5.56771 7.31131 5.56165 7.33334 5.56165C7.35538 5.56165 7.37699 5.56771 7.39581 5.57918C7.41462 5.59065 7.42992 5.60708 7.44001 5.62667L7.80001 6.57334C7.81334 6.62667 7.86668 6.65334 7.90668 6.65334L8.92001 6.70667C9.02668 6.70667 9.06668 6.84 8.98668 6.92L8.18668 7.54667C8.16927 7.56359 8.1574 7.58539 8.15264 7.6092C8.14788 7.633 8.15045 7.65769 8.16001 7.68L8.42668 8.64C8.4348 8.66435 8.4349 8.69066 8.42696 8.71507C8.41903 8.73948 8.40347 8.7607 8.38259 8.77561C8.3617 8.79053 8.33659 8.79836 8.31093 8.79795C8.28526 8.79754 8.26041 8.78891 8.24001 8.77334L7.40001 8.22667C7.38028 8.21349 7.35708 8.20645 7.33334 8.20645C7.30961 8.20645 7.28641 8.21349 7.26668 8.22667L6.42668 8.77334C6.40628 8.78891 6.38143 8.79754 6.35576 8.79795C6.3301 8.79836 6.30498 8.79053 6.2841 8.77561C6.26322 8.7607 6.24766 8.73948 6.23973 8.71507C6.23179 8.69066 6.23189 8.66435 6.24001 8.64L6.50668 7.66667C6.5147 7.64305 6.51516 7.61751 6.50799 7.59361C6.50082 7.56971 6.48638 7.54865 6.46668 7.53334L5.68001 6.92C5.66118 6.90491 5.64734 6.88448 5.64029 6.86139C5.63325 6.8383 5.63333 6.81362 5.64053 6.79058C5.64773 6.76754 5.66171 6.74721 5.68065 6.73224C5.69959 6.71727 5.7226 6.70836 5.74668 6.70667L6.76001 6.65334C6.80001 6.65334 6.85334 6.62667 6.86668 6.57334L7.22668 5.64V5.62667ZM7.22668 9.62667C7.23677 9.60708 7.25207 9.59065 7.27088 9.57918C7.2897 9.56771 7.31131 9.56165 7.33334 9.56165C7.35538 9.56165 7.37699 9.56771 7.39581 9.57918C7.41462 9.59065 7.42992 9.60708 7.44001 9.62667L7.80001 10.5733C7.81334 10.6267 7.86668 10.6533 7.90668 10.6533L8.92001 10.7067C9.02668 10.7067 9.06668 10.84 8.98668 10.92L8.18668 11.5467C8.16927 11.5636 8.1574 11.5854 8.15264 11.6092C8.14788 11.633 8.15045 11.6577 8.16001 11.68L8.42668 12.64C8.4348 12.6644 8.4349 12.6907 8.42696 12.7151C8.41903 12.7395 8.40347 12.7607 8.38259 12.7756C8.3617 12.7905 8.33659 12.7984 8.31093 12.7979C8.28526 12.7975 8.26041 12.7889 8.24001 12.7733L7.40001 12.2267C7.38028 12.2135 7.35708 12.2064 7.33334 12.2064C7.30961 12.2064 7.28641 12.2135 7.26668 12.2267L6.42668 12.7733C6.40628 12.7889 6.38143 12.7975 6.35576 12.7979C6.3301 12.7984 6.30498 12.7905 6.2841 12.7756C6.26322 12.7607 6.24766 12.7395 6.23973 12.7151C6.23179 12.6907 6.23189 12.6644 6.24001 12.64L6.50668 11.6667C6.5147 11.643 6.51516 11.6175 6.50799 11.5936C6.50082 11.5697 6.48638 11.5486 6.46668 11.5333L5.68001 10.92C5.66118 10.9049 5.64734 10.8845 5.64029 10.8614C5.63325 10.8383 5.63333 10.8136 5.64053 10.7906C5.64773 10.7675 5.66171 10.7472 5.68065 10.7322C5.69959 10.7173 5.7226 10.7084 5.74668 10.7067L6.76001 10.6533C6.80001 10.6533 6.85334 10.6267 6.86668 10.5733L7.22668 9.64V9.62667ZM11.2267 1.62667C11.2368 1.60708 11.2521 1.59065 11.2709 1.57918C11.2897 1.56771 11.3113 1.56165 11.3333 1.56165C11.3554 1.56165 11.377 1.56771 11.3958 1.57918C11.4146 1.59065 11.4299 1.60708 11.44 1.62667L11.8 2.57334C11.8133 2.62667 11.8667 2.65334 11.9067 2.65334L12.92 2.70667C13.0267 2.70667 13.0667 2.84 12.9867 2.92L12.1867 3.54667C12.1693 3.56359 12.1574 3.58539 12.1526 3.6092C12.1479 3.633 12.1504 3.65769 12.16 3.68L12.4267 4.64C12.4348 4.66435 12.4349 4.69066 12.427 4.71507C12.419 4.73948 12.4035 4.7607 12.3826 4.77561C12.3617 4.79053 12.3366 4.79836 12.3109 4.79795C12.2853 4.79754 12.2604 4.78891 12.24 4.77334L11.4 4.22667C11.3803 4.21349 11.3571 4.20645 11.3333 4.20645C11.3096 4.20645 11.2864 4.21349 11.2667 4.22667L10.4267 4.77334C10.4063 4.78891 10.3814 4.79754 10.3558 4.79795C10.3301 4.79836 10.305 4.79053 10.2841 4.77561C10.2632 4.7607 10.2477 4.73948 10.2397 4.71507C10.2318 4.69066 10.2319 4.66435 10.24 4.64L10.5067 3.66667C10.5147 3.64305 10.5152 3.61751 10.508 3.59361C10.5008 3.56971 10.4864 3.54865 10.4667 3.53334L9.68001 2.92C9.66118 2.90491 9.64734 2.88448 9.64029 2.86139C9.63325 2.8383 9.63333 2.81362 9.64053 2.79058C9.64773 2.76754 9.66172 2.74721 9.68065 2.73224C9.69959 2.71727 9.7226 2.70836 9.74668 2.70667L10.76 2.65334C10.8 2.65334 10.8533 2.62667 10.8667 2.57334L11.2267 1.64V1.62667ZM11.2267 5.62667C11.2368 5.60708 11.2521 5.59065 11.2709 5.57918C11.2897 5.56771 11.3113 5.56165 11.3333 5.56165C11.3554 5.56165 11.377 5.56771 11.3958 5.57918C11.4146 5.59065 11.4299 5.60708 11.44 5.62667L11.8 6.57334C11.8133 6.62667 11.8667 6.65334 11.9067 6.65334L12.92 6.70667C13.0267 6.70667 13.0667 6.84 12.9867 6.92L12.1867 7.54667C12.1693 7.56359 12.1574 7.58539 12.1526 7.6092C12.1479 7.633 12.1504 7.65769 12.16 7.68L12.4267 8.64C12.4348 8.66435 12.4349 8.69066 12.427 8.71507C12.419 8.73948 12.4035 8.7607 12.3826 8.77561C12.3617 8.79053 12.3366 8.79836 12.3109 8.79795C12.2853 8.79754 12.2604 8.78891 12.24 8.77334L11.4 8.22667C11.3803 8.21349 11.3571 8.20645 11.3333 8.20645C11.3096 8.20645 11.2864 8.21349 11.2667 8.22667L10.4267 8.77334C10.4063 8.78891 10.3814 8.79754 10.3558 8.79795C10.3301 8.79836 10.305 8.79053 10.2841 8.77561C10.2632 8.7607 10.2477 8.73948 10.2397 8.71507C10.2318 8.69066 10.2319 8.66435 10.24 8.64L10.5067 7.66667C10.5147 7.64305 10.5152 7.61751 10.508 7.59361C10.5008 7.56971 10.4864 7.54865 10.4667 7.53334L9.68001 6.92C9.66118 6.90491 9.64734 6.88448 9.64029 6.86139C9.63325 6.8383 9.63333 6.81362 9.64053 6.79058C9.64773 6.76754 9.66172 6.74721 9.68065 6.73224C9.69959 6.71727 9.7226 6.70836 9.74668 6.70667L10.76 6.65334C10.8 6.65334 10.8533 6.62667 10.8667 6.57334L11.2267 5.64V5.62667ZM11.2267 9.62667C11.2368 9.60708 11.2521 9.59065 11.2709 9.57918C11.2897 9.56771 11.3113 9.56165 11.3333 9.56165C11.3554 9.56165 11.377 9.56771 11.3958 9.57918C11.4146 9.59065 11.4299 9.60708 11.44 9.62667L11.8 10.5733C11.8133 10.6267 11.8667 10.6533 11.9067 10.6533L12.92 10.7067C13.0267 10.7067 13.0667 10.84 12.9867 10.92L12.1867 11.5467C12.1693 11.5636 12.1574 11.5854 12.1526 11.6092C12.1479 11.633 12.1504 11.6577 12.16 11.68L12.4267 12.64C12.4348 12.6644 12.4349 12.6907 12.427 12.7151C12.419 12.7395 12.4035 12.7607 12.3826 12.7756C12.3617 12.7905 12.3366 12.7984 12.3109 12.7979C12.2853 12.7975 12.2604 12.7889 12.24 12.7733L11.4 12.2267C11.3803 12.2135 11.3571 12.2064 11.3333 12.2064C11.3096 12.2064 11.2864 12.2135 11.2667 12.2267L10.4267 12.7733C10.4063 12.7889 10.3814 12.7975 10.3558 12.7979C10.3301 12.7984 10.305 12.7905 10.2841 12.7756C10.2632 12.7607 10.2477 12.7395 10.2397 12.7151C10.2318 12.6907 10.2319 12.6644 10.24 12.64L10.5067 11.6667C10.5147 11.643 10.5152 11.6175 10.508 11.5936C10.5008 11.5697 10.4864 11.5486 10.4667 11.5333L9.68001 10.92C9.66118 10.9049 9.64734 10.8845 9.64029 10.8614C9.63325 10.8383 9.63333 10.8136 9.64053 10.7906C9.64773 10.7675 9.66172 10.7472 9.68065 10.7322C9.69959 10.7173 9.7226 10.7084 9.74668 10.7067L10.76 10.6533C10.8 10.6533 10.8533 10.6267 10.8667 10.5733L11.2267 9.64V9.62667Z" fill="#F8F9FD"/>
</g>
<defs>
<clipPath id="clip0_142_348">
<rect width="24" height="24" fill="white"/>
</clipPath>
</defs>
</svg>
