<svg width="24" height="24" viewBox="0 0 24 24" fill="none" xmlns="http://www.w3.org/2000/svg">
<g clip-path="url(#clip0_141_224)">
<path d="M0 0H24V24H0V0Z" fill="#0091BA"/>
<path d="M15.3729 16.1305C13.2389 16.1305 12.1609 14.4035 12.1609 11.9835C12.1609 9.56351 13.2389 7.86951 15.3729 7.86951C17.4849 7.86951 18.5739 9.56351 18.5739 11.9835C18.5739 14.4035 17.4849 16.1305 15.3729 16.1305ZM15.3729 14.9865C16.4619 14.9865 17.0229 13.9085 17.0229 11.9835C17.0229 10.0585 16.4619 9.01351 15.3729 9.01351C14.2839 9.01351 13.7119 10.0585 13.7119 11.9835C13.7119 13.9085 14.2839 14.9865 15.3729 14.9865Z" fill="white"/>
<path d="M8.47303 14.9865C9.30903 14.9865 9.96903 14.4915 9.96903 13.7435C9.96903 12.8085 9.10003 12.4345 7.96703 12.4345H7.64803V11.2465H7.91203C9.05603 11.2465 9.77103 10.8285 9.77103 10.0805C9.77103 9.38751 9.16603 9.01351 8.50603 9.01351C7.58203 9.01351 7.01003 9.58551 6.93303 10.4215H5.49203C5.66803 8.82651 6.75703 7.86951 8.59403 7.86951C9.92503 7.86951 11.3 8.50751 11.3 10.0145C11.3 10.7955 10.838 11.4225 10.222 11.7635C11.047 12.1155 11.509 12.8965 11.509 13.6995C11.509 15.3165 10.112 16.1305 8.42903 16.1305C6.60303 16.1305 5.51403 14.9425 5.42603 13.4795H6.85603C6.97703 14.2825 7.47203 14.9865 8.47303 14.9865Z" fill="white"/>
</g>
<defs>
<clipPath id="clip0_141_224">
<rect width="24" height="24" fill="white"/>
</clipPath>
</defs>
</svg>
