<svg width="24" height="24" viewBox="0 0 24 24" fill="none" xmlns="http://www.w3.org/2000/svg">
<g clip-path="url(#clip0_142_372)">
<path d="M0 0H24V24H0V0Z" fill="#DFBC06"/>
<path d="M13.5528 12.5897C13.3048 13.0119 13.0828 13.4733 12.8935 13.9585C12.6236 14.6462 12.4147 15.3949 12.2689 16.1892C12.5648 16.8247 12.9326 17.3448 13.3592 17.7321C13.4462 17.8105 13.5572 17.9563 13.6878 18.1173C13.7465 18.1935 13.8271 18.2958 13.901 18.3785L14.5409 17.9824C15.0022 17.6777 15.0871 17.5189 15.2939 17.1337C15.3657 17.0053 15.4418 16.8595 15.5507 16.681C16.0207 15.8976 16.0294 15.0619 16.0402 14.1805C16.0468 13.7083 16.0511 13.2208 16.1273 12.7225C16.3232 11.4124 16.654 10.6768 16.815 10.3243L16.8607 10.222C17.0631 9.74537 17.3068 9.2753 17.5897 8.827C16.4037 9.44288 14.7454 10.6006 13.5528 12.5897Z" fill="white"/>
<path d="M11.0044 14.0849C10.9979 14.0653 10.9957 14.05 10.9914 14.0326C10.9849 14.0174 10.9805 14.0043 10.9805 13.9913C10.9805 13.9913 10.9783 13.9891 10.9805 13.9869C10.5844 12.79 9.8554 11.6431 8.80206 10.5811C8.78029 10.555 7.65953 9.29928 6.4104 8.78572C6.4104 8.78572 6.41911 8.79877 6.42781 8.80748C6.43651 8.81618 6.44304 8.82706 6.4474 8.83577C7.21778 9.95435 7.52903 11.3668 7.75097 12.7204C7.83585 13.2057 7.89677 13.728 7.95772 14.3634C7.9686 14.4962 7.98165 14.6224 7.99254 14.7508C8.07959 15.7257 8.14052 16.4352 8.6911 17.2426C9.2765 18.0935 10.1644 18.7028 11.1285 18.9139C11.4114 18.9749 11.6051 19.2121 11.6007 19.495L11.6007 19.6647C11.5986 19.7844 11.6443 19.8954 11.7269 19.9781C11.8096 20.0608 11.9206 20.1065 12.0425 20.1065C12.2841 20.1043 12.4799 19.9085 12.4799 19.6647C12.4821 19.2665 12.7215 18.927 13.0849 18.7986C13.1807 18.7638 13.2808 18.7203 13.3809 18.6724C13.3352 18.6136 13.2851 18.5505 13.2264 18.4787C13.135 18.3568 13.0131 18.2088 12.9609 18.161C12.4582 17.7018 12.0273 17.0924 11.6922 16.3482C11.5442 16.0174 11.4136 15.6649 11.2939 15.2623L11.0044 14.0849Z" fill="white"/>
<path d="M11.4309 3.92607C10.9609 4.23074 10.3428 4.79656 9.82699 5.7955L10.9434 5.79333C11.074 5.16657 11.235 4.54412 11.4309 3.92607Z" fill="white"/>
<path d="M12.3538 5.79326C12.2385 5.26877 12.1035 4.75083 11.9468 4.23724C11.788 4.74864 11.653 5.27094 11.5377 5.79108L12.3538 5.79326Z" fill="white"/>
<path d="M14.0621 5.79116C13.7117 5.10128 13.2133 4.45059 12.5191 3.93484C12.4973 3.91743 12.4756 3.90437 12.4516 3.89349C12.6519 4.51589 12.8173 5.15136 12.9478 5.79118L14.0621 5.79116Z" fill="white"/>
<path d="M10.8303 6.37656L9.55724 6.37873C9.38967 6.8031 9.23951 7.28405 9.11982 7.839L10.6236 7.83683C10.6715 7.34935 10.7411 6.85751 10.8303 6.37656Z" fill="white"/>
<path d="M14.3254 6.37209L13.0654 6.37427C13.1503 6.85958 13.2177 7.34487 13.2591 7.83453L14.7455 7.83235C14.6584 7.36662 14.5235 6.87047 14.3254 6.37209Z" fill="white"/>
<path d="M12.4712 6.37641L11.4223 6.37641C11.3352 6.85955 11.2656 7.34703 11.2112 7.83668L12.6758 7.83451C12.6279 7.34703 12.5582 6.85955 12.4712 6.37641Z" fill="white"/>
<path d="M10.5256 9.57553C10.5299 9.19252 10.5473 8.8095 10.5713 8.42429L9.01527 8.42648C8.94563 8.84866 8.8934 9.30569 8.8651 9.80404L8.94562 9.88456L10.5278 9.88238C10.5212 9.78445 10.5234 9.67783 10.5256 9.57553Z" fill="white"/>
<path d="M14.8391 8.41784L13.3092 8.42001C13.3353 8.78998 13.3549 9.17517 13.3549 9.57126C13.3571 9.67354 13.3549 9.77583 13.3571 9.87812H14.9109C14.9218 9.59303 14.9218 9.06201 14.8391 8.41784Z" fill="white"/>
<path d="M13.3439 10.4612C13.3265 10.9835 13.2852 11.4993 13.2242 12.0129C13.6029 11.4253 14.0186 10.9095 14.4473 10.459L13.3439 10.4612Z" fill="white"/>
<path d="M9.50496 10.47C9.94021 10.9401 10.3189 11.4232 10.6388 11.9303C10.5866 11.4428 10.5517 10.9553 10.5365 10.4656L9.50496 10.47Z" fill="white"/>
<path d="M11.1089 9.58C11.1067 9.68228 11.1045 9.78021 11.1089 9.88031H12.7759C12.7759 9.77585 12.7781 9.67792 12.7737 9.57781C12.7694 9.18174 12.7541 8.79219 12.7302 8.42004L11.1611 8.42222C11.1285 8.80741 11.1133 9.19262 11.1089 9.58Z" fill="white"/>
<path d="M11.5441 13.841C11.5441 13.8453 11.5485 13.8497 11.5485 13.854C11.5507 13.8562 11.5485 13.8584 11.5485 13.8627C11.5529 13.8758 11.5594 13.891 11.5572 13.9019L11.864 15.1054C11.8728 15.1359 11.8815 15.162 11.8902 15.1881C12.0164 14.7006 12.1644 14.2305 12.3363 13.7888C12.3363 13.7844 12.3385 13.7822 12.3385 13.7779C12.4299 13.3687 12.5082 12.9422 12.5691 12.5069L11.3047 12.5091C11.3679 12.9596 11.4462 13.4036 11.5441 13.841Z" fill="white"/>
<path d="M12.7606 10.4657H11.1241C11.1393 10.9553 11.1741 11.4428 11.2307 11.9259L12.6475 11.9238C12.7019 11.4385 12.7432 10.9488 12.7606 10.4657Z" fill="white"/>
</g>
<defs>
<clipPath id="clip0_142_372">
<rect width="24" height="24" fill="white"/>
</clipPath>
</defs>
</svg>
