<svg width="24" height="24" viewBox="0 0 24 24" fill="none" xmlns="http://www.w3.org/2000/svg">
<g clip-path="url(#clip0_142_384)">
<path d="M0 0H24V24H0V0Z" fill="#367C2A"/>
<path d="M15.8661 5.40682C13.9706 4.4026 11.8327 4.40818 10.5426 6.2314C9.33345 7.94183 9.97674 8.36197 9.0666 10.0799C8.15688 11.797 7.44722 11.5003 6.71193 13.4618C5.92748 15.554 7.12532 17.3268 9.01928 18.3302C11.2699 19.5225 14.3892 18.74 16.8052 14.1798C19.2212 9.6195 18.1167 6.5992 15.8661 5.40682ZM10.6722 12.9157C10.4458 13.1589 10.0848 13.2199 9.79037 13.0649C9.58888 12.9582 9.44766 12.7629 9.41027 12.5376C9.37215 12.312 9.44066 12.0816 9.59683 11.9149C9.91308 11.576 10.1801 11.1947 10.3904 10.7814C10.6142 10.3753 10.7801 9.93943 10.8829 9.48739C10.9731 9.09171 11.3669 8.84447 11.7626 8.93463C12.1583 9.0248 12.4055 9.4186 12.3153 9.81427C12.1835 10.3914 11.9728 10.9479 11.6893 11.4685C11.4189 11.9952 11.0764 12.4828 10.6722 12.9157Z" fill="white"/>
</g>
<defs>
<clipPath id="clip0_142_384">
<rect width="24" height="24" fill="white"/>
</clipPath>
</defs>
</svg>
