<svg width="24" height="24" viewBox="0 0 24 24" fill="none" xmlns="http://www.w3.org/2000/svg">
<g clip-path="url(#clip0_142_378)">
<path d="M0 0H24V24H0V0Z" fill="#FED502"/>
<path d="M12 3.89551C10.4779 5.17083 10.4367 7.26895 12 8.58542C13.5633 7.26895 13.5633 5.21197 12 3.89551Z" fill="white"/>
<path d="M12 11.4652C14.0159 11.7532 15.5792 10.2721 15.4969 8.05061C13.4399 7.7215 11.9178 9.24366 12 11.4652Z" fill="white"/>
<path d="M12 11.4652C12.0823 9.24366 10.519 7.76263 8.50317 8.05061C8.42089 10.1899 9.9842 11.7532 12 11.4652Z" fill="white"/>
<path d="M12 15.4969C14.0159 15.7848 15.5792 14.3038 15.4969 12.0823C13.4811 11.7943 11.8766 13.3165 12 15.4969Z" fill="white"/>
<path d="M8.50318 12.0823C8.4209 14.3038 9.94306 15.826 12 15.4969C12.1235 13.3165 10.519 11.7943 8.50318 12.0823Z" fill="white"/>
<path d="M11.4241 19.5285C11.4241 19.8577 11.6709 20.1045 12 20.1045C12.1646 20.1045 12.288 20.0634 12.4114 19.9399C12.5349 19.8165 12.576 19.6931 12.576 19.5285L12.576 16.2374L11.4241 16.2374L11.4241 19.5285Z" fill="white"/>
</g>
<defs>
<clipPath id="clip0_142_378">
<rect width="24" height="24" fill="white"/>
</clipPath>
</defs>
</svg>
