<svg width="44" height="44" viewBox="0 0 44 44" fill="none" xmlns="http://www.w3.org/2000/svg">
<path d="M13.7501 8.04005C13.7501 7.67682 14.0445 7.38235 14.4078 7.38235H19.6694C20.0326 7.38235 20.3271 7.67682 20.3271 8.04005V33.0326C20.3271 33.3958 20.0326 33.6903 19.6694 33.6903H14.4078C14.0445 33.6903 13.7501 33.3958 13.7501 33.0326V8.04005Z" fill="currentColor"/>
<path d="M23.6729 17.9055C23.6729 17.5423 23.9674 17.2478 24.3306 17.2478H29.5922C29.9555 17.2478 30.2499 17.5423 30.2499 17.9055V33.0326C30.2499 33.3958 29.9555 33.6903 29.5922 33.6903H24.3306C23.9674 33.6903 23.6729 33.3958 23.6729 33.0326V17.9055Z" fill="currentColor"/>
</svg>
